<?xml version="1.0" encoding="utf-8"?>
<!-- Generator: Adobe Illustrator 27.1.0, SVG Export Plug-In . SVG Version: 6.00 Build 0)  -->
<svg version="1.1" xmlns="http://www.w3.org/2000/svg" xmlns:xlink="http://www.w3.org/1999/xlink" x="0px" y="0px"
	 viewBox="0 0 140 50" style="enable-background:new 0 0 140 50;" xml:space="preserve">
<style type="text/css">
	.st0{fill:#95C121;}
	.st1{fill:#FFCB00;}
	.st2{fill:#008237;}
	.st3{fill:#656564;}
	.st4{display:none;fill:#008137;}
	.st5{fill:#008137;}
</style>
<g id="Layer_1">
	<g>
		<path class="st0" d="M120.4,30h-0.8c-5.6-4.7-8.9-7.5-11.2-9.6c-1.8-1.6-3-2.8-5.1-4.9h-0.1c0.1,1.4,0.1,2.3,0.1,3.1v11.1h-5.9
			V2.9h0.8c5.8,4.9,9.2,7.8,11.5,10c1.5,1.4,3.1,2.9,4.8,4.6h0.1c0-1.7,0-2.8,0-3.8V3.1h5.9L120.4,30L120.4,30z"/>
		<path class="st1" d="M138.6,22.7c0,4.4-3.7,7.4-8.9,7.4c-1.8,0-3.6-0.3-5.3-0.9c0-2,0.1-2.6,0.2-5.6h0.1c0.4,0.2,0.9,0.4,1.4,0.6
			c1,0.3,2,0.5,3,0.4c1.6,0,2.8-0.8,2.8-2.3c0-0.9-0.6-1.8-1.7-2.6c-0.9-0.7-1.8-1.5-2.7-2.4c-1.8-1.7-2.9-4-3-6.5
			c0-4,2.7-7.8,9.1-7.8c1.3,0,2.5,0.1,3.8,0.5c-0.1,2.1-0.1,2.7-0.2,5.6h-0.1c-0.4-0.2-0.9-0.3-1.3-0.4c-0.5-0.1-1.1-0.2-1.6-0.2
			c-1.8,0-3.1,0.9-3.1,2.3c0,0.8,0.4,1.5,1,2.1c0.6,0.6,1.7,1.6,3.2,2.9C137.3,17.7,138.6,19.6,138.6,22.7L138.6,22.7z"/>
		<path class="st2" d="M89.9,17.7L83.5,3l-2.9,6.2c1.2,3.4,4.2,11.6,4.2,11.6h-9.6l-2.4,5h13.8c0.8,2,1.4,3.5,1.5,3.7v0.1h7.1v-0.1
			C95,29.3,94.3,27.8,89.9,17.7z"/>
		<path class="st3" d="M50.2,15.9c0.2,4.6-2.1,9-6,11.6c-2.7,1.6-5.8,2.4-9,2.3c-1.7,0-3.3,0-4.4-0.1c-0.7,0-1.7-0.1-2.5-0.2V3.3
			C29,3.2,29.8,3.1,31.4,3s2.9-0.1,4.2-0.1c3.2-0.1,6.4,0.6,9.2,2.2C48.9,7.6,50.2,11.9,50.2,15.9L50.2,15.9z M43.6,16
			c0.1-2.3-0.8-4.5-2.5-6c-1.4-1-3.1-1.5-4.8-1.5c-0.6,0-1.3,0.1-1.7,0.1v15.2c0,0.1,0,0.1,0.1,0.1c0.5,0.1,1,0.1,1.6,0.1
			c1.5,0,3-0.5,4.3-1.3C42.6,21.2,43.8,18.7,43.6,16L43.6,16z"/>
		<path class="st3" d="M63.6,30.2h-0.8l-7.6-15.8C50.8,5,50,3.4,49.9,3.2V3.1h7.2v0.1c0.1,0.2,0.8,1.7,3.5,7.8c1,2.2,2,4.5,2.8,6.8
			h0.1c0.8-2.3,1.7-4.6,2.7-6.8l3.5-7.9V3.1h6.7v0.1c-0.1,0.2-0.8,1.8-5.3,11.1L63.6,30.2z"/>
		<path class="st3" d="M9.4,25.9c-0.8,2-1.4,3.5-1.5,3.7v0.1H1.4v-0.1c0.1-0.2,0.8-1.7,5.3-11.8l6.7-15.1h0.9l6.6,15.1
			c4.4,10.1,5.1,11.6,5.2,11.8v0.1h-7.1v-0.1c-0.1-0.2-0.7-1.7-1.5-3.7H9.4z M15.6,20.9L15.6,20.9c-0.8-2-1.5-4-2.1-6l0,0
			c-0.6,2-1.4,4-2.2,5.9v0.1H15.6z"/>
		<g id="PAYS">
			<g>
				<path class="st4" d="M37.6,47.5c-0.5,0-1,0-1.5,0c-0.4,0-0.9-0.1-1.3-0.2v-8.8l0.6-0.1l0.7-0.1h0.7h0.6c0.5,0,1,0,1.5,0.1
					c0.4,0.1,0.8,0.2,1.2,0.4c0.3,0.2,0.6,0.4,0.8,0.8c0.2,0.4,0.3,0.8,0.3,1.2c0,0.4-0.1,0.8-0.3,1.1c-0.2,0.3-0.5,0.6-0.9,0.7
					c0.5,0.1,0.9,0.4,1.2,0.8c0.3,0.4,0.4,0.9,0.4,1.3c0.1,0.8-0.3,1.6-1,2.1C39.8,47.3,38.7,47.6,37.6,47.5z M36.5,42h1.2
					c0.5,0,1-0.1,1.5-0.3c0.4-0.2,0.6-0.6,0.5-1c0-0.4-0.2-0.7-0.6-0.9c-0.5-0.2-0.9-0.3-1.4-0.3H37h-0.5L36.5,42z M36.5,43.3V46
					h0.6h0.6c0.3,0,0.6,0,0.9-0.1c0.3,0,0.5-0.1,0.8-0.2c0.2-0.1,0.4-0.3,0.5-0.4c0.1-0.2,0.2-0.5,0.2-0.7c0-0.4-0.2-0.9-0.6-1.1
					c-0.5-0.2-1-0.3-1.5-0.3L36.5,43.3z"/>
				<path class="st4" d="M49.4,47.4c-0.1-0.3-0.2-0.7-0.4-1s-0.3-0.7-0.4-1.1h-3.8c-0.1,0.4-0.2,0.7-0.4,1.1s-0.2,0.7-0.4,1h-1.7
					c0.3-1,0.7-1.8,1-2.7s0.6-1.6,0.9-2.3s0.6-1.4,0.9-2.1s0.6-1.3,0.9-2h1.6c0.3,0.7,0.6,1.3,0.9,2s0.6,1.3,0.9,2.1
					s0.6,1.5,0.9,2.3s0.6,1.7,1,2.7L49.4,47.4z M46.8,40.1c-0.2,0.5-0.4,1-0.7,1.7c-0.2,0.7-0.5,1.4-0.8,2.1h3
					c-0.3-0.8-0.5-1.5-0.8-2.2S47,40.5,46.8,40.1z"/>
				<path class="st4" d="M58.4,47.4c-0.3-0.5-0.6-1-1-1.6s-0.7-1.1-1.1-1.7s-0.8-1.1-1.2-1.7s-0.8-1-1.2-1.5v6.5h-1.6v-9h1.3
					c0.3,0.4,0.7,0.8,1.1,1.3s0.8,1,1.2,1.5s0.8,1.1,1.2,1.6s0.7,1,1,1.5v-6h1.6v9L58.4,47.4z"/>
				<path class="st4" d="M70.3,42.8c0,0.6-0.1,1.2-0.2,1.8c-0.1,0.5-0.4,1-0.7,1.4c-0.3,0.4-0.6,0.7-1,1c-0.4,0.2-0.8,0.4-1.3,0.5
					c0,0.2,0.1,0.4,0.3,0.5c0.2,0.1,0.4,0.3,0.6,0.3c0.3,0.1,0.5,0.2,0.8,0.2c0.3,0.1,0.7,0.1,1,0.1l-0.4,1.2
					c-0.9,0-1.8-0.3-2.7-0.7c-0.6-0.3-1.1-0.9-1.3-1.6c-0.5,0-1-0.2-1.5-0.4c-0.5-0.2-0.9-0.5-1.2-0.9c-0.4-0.4-0.6-0.9-0.8-1.4
					c-0.4-1.3-0.4-2.7,0-4c0.2-0.6,0.6-1.1,1-1.5c0.4-0.4,0.9-0.7,1.4-0.9c0.5-0.2,1.1-0.3,1.7-0.3c0.6,0,1.1,0.1,1.7,0.3
					c0.5,0.2,1,0.5,1.4,0.9c0.4,0.4,0.7,0.9,0.9,1.5C70.2,41.5,70.4,42.2,70.3,42.8z M63.3,42.8c0,0.5,0.1,0.9,0.2,1.3
					c0.1,0.4,0.3,0.7,0.5,1c0.2,0.3,0.5,0.5,0.8,0.7c0.4,0.2,0.7,0.2,1.1,0.2c0.4,0,0.8-0.1,1.1-0.2c0.3-0.2,0.6-0.4,0.8-0.7
					c0.2-0.3,0.4-0.6,0.5-1c0.3-0.9,0.3-1.8,0-2.7c-0.1-0.4-0.3-0.7-0.5-1c-0.2-0.3-0.5-0.5-0.8-0.7c-0.4-0.2-0.7-0.3-1.1-0.3
					c-0.4,0-0.8,0.1-1.1,0.2c-0.3,0.2-0.6,0.4-0.8,0.7c-0.2,0.3-0.4,0.6-0.5,1C63.4,41.9,63.3,42.4,63.3,42.8L63.3,42.8z"/>
				<path class="st4" d="M75.6,47.6c-0.6,0-1.1-0.1-1.6-0.3c-0.4-0.2-0.8-0.4-1.1-0.8c-0.3-0.3-0.5-0.7-0.7-1.1
					c-0.1-0.5-0.2-0.9-0.2-1.4v-5.6h1.7v5.5c0,0.3,0,0.7,0.1,1c0.1,0.3,0.2,0.5,0.4,0.7c0.2,0.2,0.4,0.3,0.6,0.4
					c0.5,0.2,1.1,0.2,1.6,0c0.2-0.1,0.4-0.2,0.6-0.4c0.2-0.2,0.3-0.5,0.4-0.7c0.1-0.3,0.1-0.7,0.1-1v-5.5h1.7V44
					c0,0.5-0.1,1-0.2,1.4c-0.1,0.4-0.4,0.8-0.7,1.1c-0.3,0.3-0.7,0.6-1.1,0.8C76.7,47.5,76.2,47.6,75.6,47.6z"/>
				<path class="st4" d="M81.3,47.4v-9h5.8v1.4h-4.2V42h3.7v1.4h-3.7V46h4.5v1.4L81.3,47.4z"/>
				<path class="st5" d="M96,47.6c-0.6,0-1.2-0.1-1.8-0.3c-0.5-0.2-1-0.5-1.4-0.9c-0.4-0.4-0.7-0.9-0.9-1.5c-0.2-0.6-0.3-1.3-0.3-2
					c0-0.7,0.1-1.4,0.3-2c0.2-0.5,0.5-1,0.9-1.5c0.4-0.4,0.9-0.7,1.4-0.9c0.5-0.2,1.1-0.3,1.7-0.3c0.3,0,0.7,0,1,0.1
					c0.3,0,0.5,0.1,0.8,0.2c0.2,0.1,0.4,0.1,0.6,0.2l0.3,0.2l-0.5,1.3c-0.3-0.2-0.6-0.3-0.9-0.4c-0.4-0.1-0.8-0.2-1.2-0.2
					c-0.4,0-0.7,0.1-1,0.2c-0.3,0.1-0.6,0.3-0.9,0.6c-0.3,0.3-0.5,0.6-0.6,1c-0.1,0.5-0.2,0.9-0.2,1.4c0,0.4,0,0.9,0.2,1.3
					c0.1,0.4,0.3,0.7,0.5,1c0.2,0.3,0.5,0.5,0.9,0.7c0.4,0.2,0.8,0.3,1.2,0.2c0.5,0,1,0,1.4-0.2c0.3-0.1,0.6-0.2,0.8-0.3l0.4,1.3
					c-0.1,0.1-0.3,0.2-0.4,0.2c-0.2,0.1-0.4,0.1-0.6,0.2c-0.3,0.1-0.5,0.1-0.8,0.2C96.6,47.5,96.3,47.5,96,47.6z"/>
				<path class="st5" d="M108.4,42.8c0,0.7-0.1,1.4-0.3,2c-0.2,0.6-0.5,1.1-0.9,1.5c-0.4,0.4-0.9,0.7-1.4,0.9
					c-0.5,0.2-1.1,0.3-1.7,0.3c-0.6,0-1.2-0.1-1.7-0.3c-0.5-0.2-1-0.5-1.4-0.9c-0.4-0.4-0.7-0.9-0.9-1.5c-0.5-1.3-0.5-2.8,0-4.1
					c0.2-0.6,0.5-1.1,0.9-1.5c0.4-0.4,0.9-0.7,1.4-0.9c1.1-0.4,2.3-0.4,3.4,0c0.5,0.2,1,0.5,1.4,0.9c0.4,0.4,0.7,0.9,0.9,1.5
					C108.3,41.4,108.4,42.1,108.4,42.8z M101.4,42.8c0,0.5,0.1,0.9,0.2,1.3c0.1,0.4,0.3,0.7,0.5,1c0.2,0.3,0.5,0.5,0.8,0.7
					c0.4,0.2,0.7,0.2,1.1,0.2c0.8,0,1.5-0.3,1.9-0.9c0.2-0.3,0.4-0.6,0.5-1c0.2-0.9,0.2-1.8,0-2.7c-0.1-0.4-0.3-0.7-0.5-1
					c-0.2-0.3-0.5-0.5-0.8-0.7c-0.3-0.2-0.7-0.2-1.1-0.2c-0.4,0-0.8,0.1-1.1,0.2c-0.3,0.2-0.6,0.4-0.8,0.7c-0.2,0.3-0.4,0.6-0.5,1
					C101.4,41.9,101.4,42.4,101.4,42.8L101.4,42.8z"/>
				<path class="st5" d="M116.3,47.4l-1-1.6c-0.4-0.6-0.8-1.1-1.1-1.7s-0.8-1.1-1.2-1.7s-0.8-1-1.2-1.5v6.5h-1.6v-9h1.3
					c0.3,0.4,0.7,0.8,1.1,1.3s0.8,1,1.2,1.5s0.8,1.1,1.2,1.6s0.7,1,1,1.5v-6h1.6v9L116.3,47.4z"/>
				<path class="st5" d="M124.1,39.6c-0.8-0.1-1.6,0.3-2.1,0.9c-0.5,0.7-0.8,1.5-0.7,2.4c0,0.4,0.1,0.9,0.2,1.3
					c0.1,0.4,0.3,0.7,0.5,1c0.2,0.3,0.5,0.5,0.9,0.7c0.4,0.2,0.8,0.2,1.2,0.2c0.2,0,0.5,0,0.7,0c0.2,0,0.3,0,0.5-0.1v-3.2h1.6v4.3
					c-0.4,0.1-0.8,0.2-1.2,0.3c-0.6,0.1-1.2,0.2-1.9,0.2c-0.6,0-1.2-0.1-1.8-0.3c-0.5-0.2-1-0.5-1.4-0.9c-0.4-0.4-0.7-0.9-0.9-1.5
					c-0.2-0.6-0.3-1.3-0.3-2c0-0.7,0.1-1.4,0.3-2c0.2-0.5,0.5-1,0.9-1.5c0.4-0.4,0.9-0.7,1.4-0.9c0.5-0.2,1.1-0.3,1.7-0.3
					c0.4,0,0.7,0,1.1,0.1c0.3,0.1,0.6,0.1,0.8,0.2c0.2,0.1,0.4,0.1,0.6,0.2l0.3,0.2l-0.5,1.3c-0.3-0.2-0.6-0.3-1-0.4
					C124.8,39.6,124.4,39.6,124.1,39.6z"/>
				<path class="st5" d="M137.1,42.8c0,0.7-0.1,1.4-0.4,2c-0.2,0.6-0.5,1.1-0.9,1.5c-0.4,0.4-0.9,0.7-1.4,0.9
					c-0.5,0.2-1.1,0.3-1.7,0.3c-0.6,0-1.2-0.1-1.7-0.3c-0.5-0.2-1-0.5-1.4-0.9c-0.4-0.4-0.8-0.9-1-1.5c-0.5-1.3-0.5-2.8,0-4.1
					c0.2-0.6,0.6-1.1,1-1.5c0.4-0.4,0.9-0.7,1.4-0.9c1.1-0.4,2.3-0.4,3.4,0c0.5,0.2,1,0.5,1.4,0.9c0.4,0.4,0.7,0.9,0.9,1.5
					C137,41.4,137.1,42.1,137.1,42.8z M130.1,42.8c0,0.5,0.1,0.9,0.2,1.3c0.1,0.4,0.3,0.7,0.5,1c0.2,0.3,0.5,0.5,0.8,0.7
					c0.4,0.2,0.7,0.2,1.1,0.2c0.4,0,0.8-0.1,1.1-0.2c0.3-0.2,0.6-0.4,0.8-0.7c0.2-0.3,0.4-0.6,0.5-1c0.2-0.9,0.2-1.8,0-2.7
					c-0.1-0.4-0.3-0.7-0.5-1c-0.2-0.3-0.5-0.5-0.8-0.7c-0.3-0.2-0.7-0.2-1.1-0.2c-0.4,0-0.8,0.1-1.1,0.2c-0.3,0.2-0.6,0.4-0.8,0.7
					c-0.2,0.3-0.4,0.6-0.5,1C130.1,41.9,130.1,42.4,130.1,42.8L130.1,42.8z"/>
			</g>
			<rect x="1.4" y="42.6" class="st2" width="85.6" height="0.8"/>
		</g>
	</g>
</g>
<g id="Calque_2">
</g>
</svg>
